<?xml version="1.0" standalone="no"?>
<!DOCTYPE svg PUBLIC "-//W3C//DTD SVG 20010904//EN"
 "http://www.w3.org/TR/2001/REC-SVG-20010904/DTD/svg10.dtd">
<svg version="1.0" xmlns="http://www.w3.org/2000/svg"
 width="512.000000pt" height="512.000000pt" viewBox="0 0 512.000000 512.000000"
 preserveAspectRatio="xMidYMid meet">
<metadata>
Created by potrace 1.14, written by Peter Selinger 2001-2017
</metadata>
<g transform="translate(0.000000,512.000000) scale(0.100000,-0.100000)"
fill="#000000" stroke="none">
<path d="M4805 4855 c-38 -7 -155 -31 -260 -53 -104 -23 -289 -61 -410 -87
-320 -66 -314 -65 -330 -89 -7 -11 -17 -65 -20 -121 -6 -84 -11 -102 -29 -116
-21 -17 -51 -44 -163 -150 -44 -41 -67 -57 -79 -52 -19 7 -45 -22 -38 -41 7
-19 -164 -171 -194 -172 -26 -1 -43 -20 -35 -39 2 -7 -22 -37 -53 -66 -32 -30
-73 -68 -91 -86 -20 -19 -40 -30 -49 -26 -19 7 -46 -17 -39 -35 9 -23 -162
-181 -196 -182 -26 0 -45 -23 -34 -40 3 -4 -36 -46 -86 -93 -64 -61 -95 -84
-109 -80 -12 3 -22 -3 -30 -17 -6 -12 -9 -24 -7 -27 3 -3 -33 -42 -80 -86 -60
-58 -94 -83 -116 -87 -25 -4 -32 -10 -32 -27 -1 -44 -20 -46 -47 -5 -76 114
-83 276 -17 401 10 21 50 71 87 111 81 87 84 93 84 135 0 48 -35 93 -78 101
-81 15 -289 -73 -397 -168 -91 -80 -138 -150 -332 -498 -197 -352 -227 -378
-620 -540 -352 -145 -610 -295 -796 -464 -77 -70 -166 -218 -185 -311 -19 -89
-22 -122 -19 -210 2 -55 6 -109 9 -120 3 -11 10 -37 15 -57 12 -50 74 -172
114 -222 52 -67 783 -798 840 -840 112 -83 267 -137 402 -138 212 -3 372 63
531 220 135 133 250 331 339 582 84 239 99 279 138 353 45 89 120 170 211 229
34 22 135 76 226 120 207 100 278 146 328 211 64 83 111 181 112 230 0 31 -29
76 -60 92 -44 23 -73 18 -131 -21 -101 -68 -178 -94 -268 -90 -120 5 -255 101
-280 201 -19 77 -15 90 47 156 31 33 72 77 91 97 18 21 41 36 51 34 20 -3 42
21 38 42 -4 20 158 197 175 191 19 -8 40 11 41 37 1 33 154 200 177 193 19 -6
43 19 36 38 -3 7 8 28 24 47 88 100 140 150 158 150 22 0 36 16 36 41 0 28
153 187 183 191 21 2 27 8 27 28 0 17 19 45 57 85 31 33 67 72 80 88 13 15 33
27 45 27 25 0 45 22 38 42 -6 14 98 132 236 269 71 71 201 161 289 201 30 14
208 85 395 158 187 73 346 139 354 146 12 11 12 20 3 51 -17 55 -65 108 -125
136 -70 33 -99 37 -182 22z"/>
</g>
</svg>
